<svg width="840" height="644" viewBox="0 0 840 644" fill="none" xmlns="http://www.w3.org/2000/svg">
<path d="M236 1L236 111" stroke="#47805C" stroke-width="2.22" stroke-linecap="round" stroke-linejoin="round"/>
<path d="M247.984 164.535C251.459 157.903 248.9 149.711 242.268 146.237C235.636 142.757 227.444 145.321 223.969 151.954C220.49 158.586 223.054 166.778 229.686 170.257C236.313 173.726 244.51 171.168 247.984 164.535Z" fill="#D5FFB3"/>
<path d="M267.847 141.669L259.206 136.946C253.207 133.683 248.955 128.016 247.49 121.356L246.169 115.357C244.943 109.735 239.365 106.149 233.743 107.42C229.78 108.319 226.661 111.388 225.812 115.357L224.485 121.356C223.02 128.016 218.724 133.683 212.775 136.946L204.128 141.669C197.801 145.116 193.5 151.354 192.601 158.486H279.469C278.476 151.354 274.18 145.116 267.847 141.669Z" fill="#94E1B0"/>
<path d="M199.456 144.977H272.278" stroke="#47805C" stroke-width="2.22" stroke-linecap="round" stroke-linejoin="round"/>
<path opacity="0.3" d="M233.7 107.376C229.731 108.275 226.612 111.344 225.763 115.312L224.442 121.312C222.977 127.972 218.676 133.638 212.726 136.896L204.085 141.619C197.752 145.071 193.457 151.304 192.558 158.436H217.544C217.544 142.047 236.253 141.198 236.253 126.362C236.253 115.923 236.014 107.093 236.014 107.093C235.209 107.137 234.455 107.232 233.7 107.376Z" fill="#47805C"/>
<path d="M492.811 364.574H416.16V403.824H492.811V364.574Z" fill="#3C2C5B"/>
<path d="M492.811 403.357H416.16V442.607H492.811V403.357Z" fill="#3C2C5B"/>
<path opacity="0.2" d="M416.16 364.574H492.811V388.167L416.16 367.76V364.574Z" fill="#D5FFB3"/>
<path opacity="0.2" d="M416.16 403.357H492.811V426.956L416.16 406.543V403.357Z" fill="#D5FFB3"/>
<path d="M445.343 403.357H463.674C463.674 408.391 459.562 412.504 454.534 412.504C449.45 412.548 445.343 408.441 445.343 403.357Z" fill="#231F20"/>
<path d="M445.343 364.574H463.674C463.674 369.608 459.562 373.715 454.534 373.715C449.45 373.715 445.343 369.652 445.343 364.574Z" fill="#231F20"/>
<path d="M275.419 294.389H513.081C534.277 294.389 551.454 311.566 551.454 332.806V356.771H237.002V332.806C237.002 311.566 254.179 294.389 275.419 294.389Z" fill="#D5FFB3"/>
<path d="M551.454 362.959H492.535V541.192H551.454V362.959Z" fill="#D5FFB3"/>
<path opacity="0.2" d="M492.535 362.959H549.101C550.255 362.959 551.082 364.113 550.716 365.218L492.674 540.775C492.624 540.87 492.535 540.82 492.535 540.775V362.959Z" fill="#80B059"/>
<path d="M295.921 362.959H237.002V541.192H295.921V362.959Z" fill="#D5FFB3"/>
<path d="M551.454 354.412H237.002V364.574H551.454V354.412Z" fill="#3C2C5B"/>
<path d="M416.16 403.358L492.351 403.27" stroke="black" stroke-width="2.22" stroke-linecap="round" stroke-linejoin="round"/>
<path d="M237.002 364.575L551.454 364.48" stroke="black" stroke-width="2.22" stroke-linecap="round" stroke-linejoin="round"/>
<path d="M433.361 354.529L425.175 307.964L373.981 307.953L380.636 345.693C381.063 348.18 382.356 350.427 384.277 352.053C386.214 353.674 388.656 354.545 391.175 354.529H433.361Z" fill="#FF6D2E"/>
<path opacity="0.3" d="M428.72 328.344L425.118 307.964L373.931 307.953L379.853 341.636L428.72 328.344Z" fill="#1A0D08"/>
<path d="M477.805 325.52C480.38 325.592 482.933 325.092 485.286 324.054C487.634 323.017 489.732 321.457 491.413 319.515C493.078 317.461 494.271 315.058 494.893 312.483C495.509 309.907 495.553 307.221 495.015 304.629L477.938 207.826C475.907 196.305 464.884 186.947 453.379 186.947H306.52C303.945 186.875 301.392 187.375 299.045 188.412C296.691 189.45 294.599 190.993 292.917 192.947C291.247 195.006 290.059 197.403 289.438 199.979C288.816 202.554 288.777 205.229 289.315 207.826L306.387 304.641C308.435 316.157 319.452 325.52 330.952 325.52H477.805Z" fill="#FF6D2E"/>
<path d="M480.013 284.972L466.627 209.064C466.055 206.228 464.54 203.653 462.331 201.783C460.122 199.896 457.347 198.819 454.456 198.708H309.573C308.291 198.669 307.02 198.919 305.849 199.441C304.678 199.957 303.64 200.734 302.807 201.699C301.975 202.715 301.392 203.908 301.076 205.19C300.771 206.461 300.754 207.782 301.015 209.075L314.429 284.972H480.013Z" fill="#F6E8E2"/>
<path d="M402.341 313.775C403.417 313.814 404.494 313.614 405.493 313.176C406.481 312.748 407.363 312.099 408.079 311.283C408.779 310.467 409.3 309.502 409.583 308.453C409.877 307.404 409.916 306.316 409.728 305.25C409.317 302.714 408.035 300.405 406.115 298.707C404.189 297.009 401.736 296.032 399.166 295.938C398.128 295.921 397.09 296.11 396.119 296.509C395.153 296.914 394.288 297.514 393.566 298.28C390.525 301.599 391.279 307.243 395.248 310.878C397.168 312.676 399.693 313.714 402.341 313.775Z" fill="#1A0D08"/>
<path d="M428.387 325.593H377.205" stroke="#1A0D08" stroke-width="2.22" stroke-linecap="round" stroke-linejoin="round"/>
<path d="M431.835 346.166H380.658" stroke="#1A0D08" stroke-width="2.22" stroke-linecap="round" stroke-linejoin="round"/>
<path d="M451.171 354.53L451.077 354.108C450.671 351.81 449.462 349.723 447.669 348.23C445.876 346.721 443.617 345.899 441.281 345.899H380.658C381.086 348.319 382.345 350.506 384.227 352.088C386.108 353.664 388.489 354.53 390.942 354.53H451.171Z" fill="#FF6D2E"/>
<path d="M692.772 177.879H655.443C641.718 177.879 630.557 189.04 630.557 202.765C630.557 214.986 639.431 225.365 651.48 227.318V240.094L669.729 227.651H692.772C706.503 227.651 717.658 216.49 717.658 202.765C717.658 188.984 706.503 177.879 692.772 177.879Z" fill="#E458AE"/>
<path d="M660.133 205.779C662.009 205.779 663.535 204.252 663.535 202.371C663.535 200.495 662.009 198.969 660.133 198.969C658.252 198.969 656.726 200.495 656.726 202.371C656.726 204.252 658.252 205.779 660.133 205.779Z" fill="#D5FFB3"/>
<path d="M674.081 205.779C675.962 205.779 677.483 204.252 677.483 202.371C677.483 200.495 675.962 198.969 674.081 198.969C672.199 198.969 670.679 200.495 670.679 202.371C670.679 204.252 672.199 205.779 674.081 205.779Z" fill="#D5FFB3"/>
<path d="M688.088 205.779C689.964 205.779 691.491 204.252 691.491 202.371C691.491 200.495 689.964 198.969 688.088 198.969C686.207 198.969 684.681 200.495 684.681 202.371C684.681 204.252 686.207 205.779 688.088 205.779Z" fill="#D5FFB3"/>
<path d="M346.735 273.533H354.189L433.604 271.74L422.809 214.858L343.394 212.616H335.94L346.735 273.533Z" fill="#3E18A0" stroke="#3E18A0" stroke-width="2.22" stroke-linejoin="round"/>
<path d="M354.472 273.533H441.34L430.551 212.616H343.683L354.472 273.533Z" fill="#3E18A0" stroke="#3E18A0" stroke-width="2.22" stroke-linejoin="round"/>
<path d="M360.937 265.297H387.094L379.185 220.319H352.989L360.937 265.297Z" fill="#D5FFB3" stroke="#D5FFB3" stroke-width="2.22" stroke-linejoin="round"/>
<path d="M421.282 224.91C417.941 221.852 413.823 220.32 409.988 220.37C406.674 220.409 403.572 221.625 401.363 224.044C400.575 224.899 399.931 225.881 399.454 226.942C397.117 232.142 398.805 239.063 403.983 243.808C410.204 249.508 419.123 249.896 423.902 244.679C428.68 239.462 427.509 230.61 421.282 224.91Z" fill="#3E18A0" stroke="#3E18A0" stroke-width="2.22" stroke-linejoin="round"/>
<path d="M412.358 233.984L412.408 234.234C412.413 234.245 412.408 234.25 412.408 234.261C412.402 234.267 412.402 234.273 412.391 234.278C412.386 234.284 412.38 234.284 412.374 234.284C412.363 234.284 412.358 234.284 412.352 234.278L412.241 234.234C411.631 233.884 411.547 233.812 407.435 231.464C405.67 230.438 400.692 227.651 398.699 226.547C400.392 222.806 404.532 219.449 410.199 219.532C410.21 219.671 410.288 220.264 410.343 220.681C410.399 221.152 410.421 221.313 410.532 222.057V222.063L412.358 233.984Z" fill="#D5FFB3"/>
<path d="M386.701 213.216L397.146 273.411" stroke="#030303" stroke-width="2.22" stroke-linecap="round" stroke-linejoin="round"/>
<path d="M430.264 256.194L431.868 265.296H403.857L402.253 256.194H430.264Z" fill="#D5FFB3" stroke="#D5FFB3" stroke-width="2.22" stroke-linejoin="round"/>
<path d="M647.918 323.171C643.778 306.149 637.235 284.371 627.883 265.357C627.012 263.564 625.99 261.827 624.864 260.189L616.788 285.497L614.641 313.614L617.81 342.751L615.973 356.865H622.666C635.703 356.915 652.93 347.458 647.918 323.171Z" fill="#FAFF99"/>
<path d="M577.018 178.449C563.57 177.939 555.389 175.791 550.278 183.511C547.47 187.907 546.243 195.827 545.116 203.602C545.116 203.602 540.36 204.573 540.005 206.566C539.594 208.919 543.784 212.238 543.784 212.238C542.097 217.71 541.182 223.998 545.166 229.62C550.944 237.696 565.363 235.498 566.279 235.243L566.229 244.189L601.454 245.266C601.454 245.266 600.483 207.232 600.533 198.74C600.533 181.874 592.508 179.01 577.018 178.449Z" fill="#AC704E"/>
<path opacity="0.2" d="M566.279 235.192L566.229 242.041L574.666 231.407C569.965 234.376 566.279 235.192 566.279 235.192Z" fill="#23211F"/>
<path d="M601.505 235.398C593.275 234.837 587.702 232.379 584.533 230.436C581.054 228.344 580.654 227.755 579.849 226.929L580.615 226.324L580.782 226.218C581.092 225.996 591.943 218.986 588.418 210.195C587.447 207.842 585.655 206.516 582.946 206.105C582.436 206.055 581.925 205.999 581.364 205.999C576.197 205.999 569.449 209.069 569.399 209.119L569.349 209.174L569.315 209.196C569.249 209.069 566.28 203.086 565.453 197.203C565.414 197.058 564.187 197.208 563.061 197.208C562.65 197.208 562.345 197.208 562.039 197.158C560.763 196.953 559.891 196.442 559.381 195.571C558.46 193.884 559.175 191.536 558.953 190.942C558.87 190.665 558.204 190.665 557.588 190.665C556.212 190.665 554.93 190.565 553.809 190.41C550.64 189.899 548.081 188.312 548.081 188.312C548.697 186.269 549.513 184.582 550.329 183.306C555.34 175.685 563.571 172.056 575.332 172.056C576.097 172.056 576.913 172.056 577.735 172.106C585.605 172.416 591.737 174.82 596.033 179.265C600.429 183.866 602.682 190.36 602.682 198.69C602.626 204.573 602.116 224.148 601.761 235.292V235.398H601.505Z" fill="#231F20"/>
<path d="M465.88 267.45C455.196 261.572 431.625 249.867 419.359 245.777C416.185 244.7 416.185 252.625 419.92 254.723C417.262 254.213 401.977 251.91 397.376 254.668C394.462 256.411 397.27 259.424 397.27 259.424C396.094 259.424 391.698 261.417 394.462 266.073C387.303 274.759 410.973 276.091 414.092 277.573C411.434 278.189 398.652 279.721 398.652 281.818C398.652 285.243 405.962 285.853 420.381 284.988C432.546 290.304 437.763 288.922 440.777 288.717L447.065 295.877C454.424 289.638 465.88 267.45 465.88 267.45Z" fill="#AC704E"/>
<path d="M548.491 216.534L553.397 215.718" stroke="#23211F" stroke-width="2.22" stroke-linecap="round" stroke-linejoin="round"/>
<path d="M566.279 235.243C568.788 234.377 570.986 233.095 573.078 231.974" stroke="#23211F" stroke-width="2.22" stroke-linecap="round" stroke-linejoin="round"/>
<path d="M574.204 217.809L578.755 215.101" stroke="#23211F" stroke-width="2.22" stroke-linecap="round" stroke-linejoin="round"/>
<path d="M551.505 205.027C552.409 205.027 553.142 204.294 553.142 203.395C553.142 202.49 552.409 201.758 551.505 201.758C550.606 201.758 549.873 202.49 549.873 203.395C549.873 204.294 550.606 205.027 551.505 205.027Z" fill="#231F20"/>
<path d="M397.631 259.068C406.627 259.679 415.524 261.316 424.16 263.819" stroke="#23211F" stroke-width="2.22" stroke-linecap="round" stroke-linejoin="round"/>
<path d="M419.813 254.413C419.813 254.413 426.873 256.356 429.426 257.432" stroke="#23211F" stroke-width="2.22" stroke-linecap="round" stroke-linejoin="round"/>
<path d="M395.327 265.916C395.327 265.916 409.285 268.114 420.94 271.793" stroke="#23211F" stroke-width="2.22" stroke-linecap="round" stroke-linejoin="round"/>
<path d="M549.973 250.016C546.549 251.192 543.069 252.624 539.8 254.211C522.418 262.542 511.118 271.183 495.783 283.909C495.783 283.909 483.057 275.99 465.824 267.398L447.115 295.82C458.62 307.63 479.172 324.247 494.712 324.247C517.001 324.247 535.044 311.515 535.044 311.515C561.168 293.983 555.29 261.415 549.973 250.016Z" fill="#FAFF99"/>
<path d="M618.83 317.343C618.83 317.343 633.144 300.937 620.418 286.057C620.418 286.057 627.832 279.209 624.813 260.189C620.312 253.24 610.655 247.668 604.828 246.181L604.878 239.998H562.853V246.131C557.791 246.952 554.672 248.329 549.816 249.966C555.133 261.316 560.195 293.728 535.042 311.465C536.629 313.663 538.267 315.556 540.309 317.243C528.654 332.628 543.478 342.701 543.478 342.701V343.006L617.759 342.701C617.809 342.856 632.073 329.564 618.83 317.343Z" fill="#3E18A0"/>
<path opacity="0.2" d="M618.831 317.399H607.432C607.432 317.399 619.447 322.661 623.027 335.237C625.175 330.331 625.686 323.738 618.831 317.399Z" fill="black"/>
<path opacity="0.2" d="M623.998 308.503C626.346 302.42 627.217 294.034 620.418 286.108H591.431C591.431 286.108 620.773 288.972 623.998 308.503Z" fill="black"/>
<path d="M540.311 317.399H619.343" stroke="black" stroke-width="2.22" stroke-linecap="round" stroke-linejoin="round"/>
<path d="M553.042 286.108H620.98" stroke="black" stroke-width="2.22" stroke-linecap="round" stroke-linejoin="round"/>
<path d="M552.476 256.409H621.745" stroke="black" stroke-width="2.22" stroke-linecap="round" stroke-linejoin="round"/>
<path d="M496.499 284.32C498.952 286.313 503.553 288.921 503.659 288.716" stroke="black" stroke-width="2.22" stroke-linecap="round" stroke-linejoin="round"/>
<path d="M661.879 147.469C660.397 144.4 651.35 145.471 640.051 149.717C645.778 143.584 648.637 138.317 646.949 136.169C644.552 133.05 633.463 137.501 621.924 144.722C621.375 145.277 622.008 136.014 619.86 135.043C616.03 133.305 608.055 142.663 602.277 155.75C597.421 166.794 597.371 175.225 599.258 179.215C599.258 179.365 599.314 179.52 599.364 179.676C599.464 180.081 599.719 180.442 600.03 180.797C602.533 184.737 610.658 189.799 622.418 191.381C636.837 193.273 648.997 191.431 649.508 187.19C649.869 184.121 643.78 180.081 635.095 177.683C648.947 173.132 658.965 167.249 657.788 163.109C657.278 161.372 654.925 160.301 651.295 159.89C658.76 154.828 663.105 150.022 661.879 147.469Z" fill="#231F20"/>
<path d="M602.948 194.156C608.259 191.52 609.88 183.966 606.561 177.29C603.242 170.619 596.254 167.344 590.943 169.98C585.632 172.622 584.017 180.17 587.33 186.841C590.643 193.518 597.636 196.798 602.948 194.156Z" fill="#94E1B0"/>
<path d="M620.979 174.664C622.206 174.819 623.433 175.025 624.659 175.175C628.394 175.735 632.279 176.607 635.909 177.683" stroke="#807B7C" stroke-width="2.22" stroke-linecap="round" stroke-linejoin="round"/>
<path d="M631.309 153.446C634.578 151.864 637.852 150.532 640.866 149.411" stroke="#807B7C" stroke-width="2.22" stroke-linecap="round" stroke-linejoin="round"/>
<path d="M618.32 165.717C620.829 164.746 623.537 163.93 626.296 163.109C636.369 160.25 645.721 159.174 651.548 159.94" stroke="#807B7C" stroke-width="2.22" stroke-linecap="round" stroke-linejoin="round"/>
<path opacity="0.2" d="M568.07 317.399C568.07 317.399 550.227 313.053 549.256 295.005C546.242 301.038 541.946 306.865 535.042 311.516C536.629 313.714 538.267 315.712 540.309 317.399C528.654 332.784 543.478 342.652 543.478 342.652V342.857H552.935C552.935 342.907 550.127 326.29 568.07 317.399Z" fill="black"/>
<path opacity="0.2" d="M440.827 288.717L447.065 295.821C451.306 300.166 456.778 305.128 462.761 309.779C452.993 294.289 450.9 290.149 450.9 290.149C448.802 291.531 440.827 288.717 440.827 288.717Z" fill="black"/>
<path d="M572.722 504.811L572.977 500.409C572.261 494.121 571.34 487.989 570.219 482.161L567.56 474.136L513.775 474.952L515.057 482.161C516.489 486.862 517.405 491.058 517.766 494.327L532.029 522.293L572.722 504.811Z" fill="#A4633D"/>
<path d="M603.498 372.095C599.713 355.534 593.58 345.105 593.58 345.105L591.738 347.303C591.738 347.303 520.781 355.229 499.003 381.097C481.265 402.159 506.162 453.43 514.953 482.163H570.22C565.464 457.315 557.489 435.027 547.981 416.162H560.658C595.267 416.162 608.715 394.9 603.498 372.095Z" fill="#94E1B0"/>
<path opacity="0.2" d="M499.001 381.096C482.645 400.571 502.686 445.814 512.704 475.313C512.704 475.313 515.412 460.794 528.349 446.325C540.67 432.522 554.113 429.403 554.113 429.403C552.22 424.957 550.072 420.356 547.98 416.216L499.001 381.096Z" fill="#808080"/>
<path d="M514.952 482.162H570.219" stroke="#5F5F5F" stroke-width="2.22" stroke-linecap="round" stroke-linejoin="round"/>
<path d="M499.312 530.418C505.09 520.861 517.816 518.458 517.922 499.083C517.922 498.006 517.922 496.835 517.816 495.658C517.766 495.148 517.716 494.687 517.666 494.121H530.442C534.993 494.121 538.418 498.162 537.702 502.663L535.709 515.183C535.709 515.183 549.768 501.331 572.978 500.309C573.488 504.45 573.849 508.695 574.154 513.041C574.254 514.623 574.36 516.31 574.46 517.897C574.665 521.932 574.87 526.128 574.92 530.368V530.418L574.46 531.85L499.362 530.729V530.418H499.312Z" fill="#3C2C5B"/>
<path d="M499.313 530.475H574.87C574.92 533.999 574.87 537.579 574.765 541.258H496.549C496.549 538.345 497.009 535.891 497.725 533.793C498.186 532.567 498.697 531.496 499.313 530.475Z" fill="#3E18A0"/>
<path d="M516.18 509.357L524.821 512.987" stroke="#9865FF" stroke-width="2.22" stroke-linecap="round" stroke-linejoin="round"/>
<path d="M512.145 516.006L519.504 521.528" stroke="#9865FF" stroke-width="2.22" stroke-linecap="round" stroke-linejoin="round"/>
<path d="M535.709 515.239L532.745 529.397" stroke="#9865FF" stroke-width="2.22" stroke-linecap="round" stroke-linejoin="round"/>
<path d="M501.461 481.141L453.099 456.193L451.567 462.021C450.335 468.409 449.264 473.52 448.598 475.158L451.567 507.009H490.417L495.634 504.401C497.882 498.268 499.824 492.235 501.461 486.252V481.141Z" fill="#A4633D"/>
<path d="M620.163 362.077L616.484 344.899L552.936 349.706L543.479 352.414C543.479 352.414 492.769 356.504 477.939 373.221C463.936 389.016 461.478 409.263 455.806 439.272C454.274 447.297 452.842 455.428 451.565 461.971L501.46 486.302C510.146 453.585 510.917 437.224 510.862 416.111L576.146 416.317C604.829 416.472 626.246 390.043 620.163 362.077Z" fill="#94E1B0"/>
<path opacity="0.2" d="M510.862 416.161H492.769C492.769 420.917 496.859 423.937 501.46 430.069C506.927 437.379 509.635 445.149 509.635 445.149C510.762 435.026 510.917 426.134 510.862 416.161Z" fill="#808080"/>
<path d="M451.616 461.972L501.511 486.353" stroke="#5F5F5F" stroke-width="2.22" stroke-linecap="round" stroke-linejoin="round"/>
<path d="M416.496 497.857C425.903 491.874 438.374 495.349 447.115 478.121C447.625 477.15 448.086 476.129 448.597 475.002L448.647 474.902L457.749 479.298C462.45 481.546 463.987 487.429 461.023 491.719L454.48 501.076C454.48 501.076 473.905 494.433 495.733 504.451C494.351 508.18 492.869 511.965 491.287 515.75C490.671 517.282 490.005 518.764 489.345 520.351C487.758 524.031 486.02 527.816 484.178 531.596C484.128 531.701 483.057 533.538 483.001 533.644L416.24 498.112C416.29 498.007 416.34 497.957 416.496 497.857Z" fill="#3C2C5B"/>
<path d="M413.837 499.949C414.603 499.239 415.369 498.623 416.185 498.112L483.972 531.956C482.441 535.075 480.859 538.139 479.172 541.308L409.181 506.343C410.563 503.579 412.1 501.537 413.837 499.949Z" fill="#3E18A0"/>
<path d="M440.062 486.969L446.044 494.228" stroke="#9865FF" stroke-width="2.22" stroke-linecap="round" stroke-linejoin="round"/>
<path d="M433.106 490.597L437.097 498.827" stroke="#9865FF" stroke-width="2.22" stroke-linecap="round" stroke-linejoin="round"/>
<path d="M454.425 501.075L445.278 512.22" stroke="#9865FF" stroke-width="2.22" stroke-linecap="round" stroke-linejoin="round"/>
<path d="M507.388 460.482C510.557 443.205 510.967 431.5 510.862 416.826" stroke="#5F5F5F" stroke-width="2.22" stroke-linecap="round" stroke-linejoin="round"/>
<path d="M617.81 342.545L543.479 342.856V352.413H618.27L617.81 342.545Z" fill="black"/>
<path d="M547.98 416.161H492.769" stroke="#5F5F5F" stroke-width="2.22" stroke-linecap="round" stroke-linejoin="round"/>
<path d="M567.815 370.512H596.598C596.598 370.512 597.258 394.077 582.995 393.772C568.731 393.467 567.815 370.512 567.815 370.512Z" fill="#808080"/>
<path d="M617.095 390.299C619.859 384.267 621.341 377.518 621.185 370.564H610.041C610.041 370.514 610.552 383.756 617.095 390.299Z" fill="#808080"/>
<path d="M591.724 429.88L618.475 540.264" stroke="#231F20" stroke-width="2.22" stroke-linecap="round" stroke-linejoin="round"/>
<path d="M539.743 429.88L512.998 540.264" stroke="#231F20" stroke-width="2.22" stroke-linecap="round" stroke-linejoin="round"/>
<path d="M529.549 472.287H601.865" stroke="#231F20" stroke-width="2.22" stroke-linecap="round" stroke-linejoin="round"/>
<path d="M525.237 415.717H606.178C612.183 415.717 617.017 419.358 617.017 423.875C617.017 428.387 612.183 432.028 606.178 432.028H525.237C519.231 432.028 514.397 428.387 514.397 423.875C514.397 419.402 519.293 415.717 525.237 415.717Z" fill="#3C2C5B"/>
<path opacity="0.3" d="M514.63 425.451C515.618 429.181 519.991 432.028 525.236 432.028H606.177C612.182 432.028 617.016 428.387 617.016 423.875C617.016 422.032 616.2 420.362 614.863 419.002C600.699 422.515 583.8 425.101 565.501 426.328C546.914 427.555 529.487 427.16 514.63 425.451Z" fill="#1C1C1C"/>
<path d="M290.802 286.38L293.366 288.683C293.41 288.683 293.41 288.728 293.41 288.772L295.58 295.548C295.58 295.593 295.58 295.637 295.492 295.637L288.721 295.593C288.721 295.593 283.048 293.156 282.604 292.934V292.89L287.389 287.484C287.389 287.484 287.433 287.44 287.477 287.44L290.802 286.38Z" fill="#747471"/>
<path d="M278.444 298.556L274.548 292.756L271.451 292.356L268.349 293.156L265.246 299.444C265.246 299.488 265.246 299.488 265.29 299.488L271.845 300.415L278.4 298.6C278.488 298.6 278.488 298.6 278.444 298.556Z" fill="#EEEEEE"/>
<path d="M268.392 324.197L288.589 324.552L297.796 313.835C297.84 313.79 297.796 313.746 297.752 313.746H259.845C259.801 313.746 259.801 313.79 259.801 313.835L268.392 324.197Z" fill="black"/>
<path d="M272.822 340.098L282.607 292.89C282.607 292.846 282.651 292.846 282.651 292.846L295.538 295.504C295.583 295.504 295.583 295.549 295.583 295.549L285.843 342.801L272.822 340.098Z" fill="#FAFF99"/>
<path d="M291.553 282.966L293.457 288.683C293.457 288.727 293.457 288.727 293.412 288.727L287.524 287.484C287.48 287.484 287.479 287.44 287.479 287.395L291.464 282.922C291.464 282.922 291.509 282.922 291.553 282.966Z" fill="#FAFF99"/>
<path d="M265.29 299.49L278.444 298.602C278.488 298.602 278.488 298.602 278.488 298.646L281.635 346.787L268.393 347.63L265.246 299.49C265.246 299.49 265.246 299.49 265.29 299.49Z" fill="#E458AE"/>
<path d="M271.05 287.661L268.392 293.155L274.547 292.756L271.139 287.616C271.139 287.616 271.094 287.616 271.05 287.661Z" fill="#E458AE"/>
<path d="M278.843 320.345C285.708 320.39 292.396 318.087 297.796 313.791C297.84 313.746 297.885 313.791 297.885 313.835L295.276 337.661L291.025 351.969L266.844 351.747L262.37 337.306L259.801 313.835C259.801 313.791 259.845 313.791 259.89 313.791C265.29 318.087 271.977 320.39 278.843 320.345Z" fill="#3E18A0"/>
<path d="M262.37 337.307C271.933 329.248 285.841 329.47 295.232 337.662V337.706L293.411 354.401H264.185L262.37 337.307Z" fill="black"/>
<path d="M186.099 455.572C183.557 446.103 169.705 443.273 164.005 461.555C159.043 477.505 152.033 479.842 148.837 495.621C145.806 510.705 154.536 532.511 176.914 530.957C200.485 529.315 186.099 455.572 186.099 455.572Z" stroke="white" stroke-width="2.22" stroke-linecap="round" stroke-linejoin="round"/>
<path d="M195.561 415.195L225.836 471.988L173.022 500.144L142.747 443.35L195.561 415.195Z" fill="#94E1B0"/>
<path d="M210.323 422.737H210.157C201.06 422.737 193.679 430.119 193.679 439.215V454.589H226.801V439.215C226.801 430.119 219.425 422.737 210.323 422.737Z" stroke="white" stroke-width="2.22" stroke-linecap="round" stroke-linejoin="round"/>
<path d="M210.284 438.195H209.912C186.302 438.195 167.199 457.337 167.199 480.908V531.779C167.199 537.23 171.628 541.658 177.078 541.658H243.118C248.568 541.658 252.997 537.23 252.997 531.779V480.952C253.036 457.337 233.894 438.195 210.284 438.195C210.284 438.195 210.323 438.195 210.284 438.195Z" fill="#FF6D2E"/>
<path opacity="0.3" d="M227.213 490.664H193.063C187.53 490.664 183.023 495.176 183.023 500.71V522.227C183.023 527.76 187.53 532.272 193.063 532.272H227.213C232.746 532.272 237.252 527.76 237.252 522.227V500.71C237.252 495.176 232.746 490.664 227.213 490.664Z" fill="#8B4425"/>
<path d="M227.074 492.944H193.063C188.357 492.667 187.252 495.675 183.001 501.824V517.72C183.023 523.253 187.53 527.76 193.063 527.76H227.212C232.746 527.76 237.252 523.253 237.252 517.72V501.636C233.983 493.816 232.407 493.216 227.074 492.667V492.944Z" fill="#25F772"/>
<path d="M227.213 486.158H193.063C187.53 486.158 183.023 490.665 183.023 496.198V501.609H237.252V496.198C237.252 490.665 232.746 486.158 227.213 486.158Z" fill="#94E1B0" stroke="#272459" stroke-width="2.22"/>
<path d="M237.252 501.608H182.984" stroke="#FCFCFC" stroke-width="2.22" stroke-linecap="round" stroke-linejoin="round"/>
<path d="M210.118 473.204C205.589 473.204 201.921 469.53 201.921 465.007C201.921 460.472 205.589 456.804 210.118 456.804C214.641 456.804 218.316 460.472 218.316 465.007C218.316 469.53 214.641 473.204 210.118 473.204Z" fill="#94E1B0"/>
<path d="M744.659 541.813L744.67 540.819C744.67 523.72 744.67 507.569 723.619 487.201C722.914 486.518 722.237 485.874 721.582 485.258C721.055 484.753 720.544 484.271 720.051 483.799C710.066 474.325 705.937 470.401 698.794 446.514L698.666 446.048L698.589 445.792C692.256 424.73 689.637 416.011 676.039 413.425C675.14 413.242 674.246 413.214 673.569 413.214C668.463 413.214 663.674 416.039 661.276 417.726C659.755 418.781 657.946 419.336 656.053 419.336C655.149 419.336 654.211 419.208 653.334 418.953L640.747 415.256C640.358 415.14 639.975 415.084 639.515 415.084C637.555 415.084 635.802 416.416 635.247 418.325C635.169 418.608 635.124 418.853 635.08 419.18C634.742 423.193 635.158 428.915 639.076 433.388C641.612 436.263 644.487 438.128 647.024 439.776L647.074 439.809C650.293 441.913 652.807 443.556 652.807 446.136V531.34L651.12 531.329C647.079 531.329 643.794 534.615 643.794 538.655V541.813H744.659Z" fill="#FF6D2E"/>
<path d="M703.274 459.923L703.213 459.779C702.064 456.804 700.909 453.368 699.472 448.64L699.461 448.601L652.78 448.59L652.769 459.923H703.274Z" fill="#94E1B0"/>
<path d="M681.989 473.232C687.949 473.232 692.8 468.381 692.8 462.42V428.238C688.971 418.703 684.07 414.84 675.995 413.43C675.301 413.308 674.518 413.214 673.525 413.214C672.665 413.214 672.032 413.236 671.344 413.347L671.144 413.386L671.133 462.42C671.177 468.381 676.045 473.232 681.989 473.232Z" fill="#B9400C"/>
<path d="M653.035 480.49C655.754 480.49 658.18 478.875 659.24 476.322C659.922 474.662 659.922 472.836 659.24 471.177C658.562 469.517 657.242 468.241 655.582 467.519C654.777 467.181 653.884 467.009 653.035 467.009C650.31 467.009 647.89 468.624 646.824 471.177C646.147 472.836 646.147 474.662 646.824 476.322C647.507 477.981 648.822 479.258 650.482 479.979C651.292 480.318 652.141 480.49 653.035 480.49Z" fill="#3C2C5B"/>
<path d="M662.048 426.878C660.943 426.878 660.05 425.979 660.05 424.875C660.05 423.776 660.943 422.877 662.048 422.877C663.152 422.877 664.046 423.776 664.046 424.875C664.046 425.979 663.152 426.878 662.048 426.878Z" fill="#5A3A35"/>
<path d="M638.055 422.183C641.274 422.183 643.894 419.547 643.894 416.305V416.178L640.736 415.229C640.486 415.145 640.186 415.101 639.892 415.062L639.543 415.057C637.162 415.057 635.236 416.822 635.069 419.153C635.025 419.819 634.98 420.512 634.98 421.278V421.345L635.03 421.373C635.891 421.889 636.99 422.183 638.055 422.183Z" fill="#B9400C"/>
<path opacity="0.15" d="M671.738 541.814L671.755 538.656C671.755 534.721 674.951 531.524 678.881 531.524H680.757L680.768 531.424C680.768 531.424 680.762 531.396 680.762 531.352C680.573 528.433 680.052 513.298 688.033 502.226L688.205 502.015L687.938 502.076L687.888 502.098C685.968 502.908 669.091 510.65 669.052 531.424C668.974 531.435 666.937 531.901 664.984 533.566C662.658 535.542 661.481 538.284 661.481 541.714V541.814H671.738Z" fill="#562713"/>
<path d="M704.693 491.118C677.693 497.54 680.668 531.422 680.668 531.422H678.88C674.884 531.422 671.654 534.658 671.654 538.654V541.29" stroke="#B9400C" stroke-width="2.22" stroke-linecap="round" stroke-linejoin="round"/>
</svg>
