<svg width="30" height="30" viewBox="0 0 30 30" fill="none" xmlns="http://www.w3.org/2000/svg">
<path d="M14.0625 19.7466V5.625C14.0625 5.09719 14.4731 4.6875 15 4.6875C15.5269 4.6875 15.9375 5.09812 15.9375 5.625V19.7466H14.0625ZM14.0625 21.5916H15.9375V23.3494H14.0625V21.5916ZM0 15C0 6.70875 6.70875 0 15 0C23.2913 0 30 6.70875 30 15C30 23.2913 23.2913 30 15 30C6.70875 30 0 23.2913 0 15ZM28.1541 15C28.1541 7.76344 22.2356 1.875 15 1.875C7.76438 1.875 1.875 7.76344 1.875 15C1.875 22.2366 7.76344 28.125 15 28.125C22.2366 28.125 28.1541 22.2366 28.1541 15Z" fill="white"/>
</svg>
