<svg width="30" height="30" viewBox="0 0 30 30" fill="none" xmlns="http://www.w3.org/2000/svg">
<g id="eye-show-svgrepo-com 1">
<path id="Vector" fill-rule="evenodd" clip-rule="evenodd" d="M14.9922 19.375C17.4085 19.375 19.3672 17.4162 19.3672 15C19.3672 12.5838 17.4085 10.625 14.9922 10.625C12.576 10.625 10.6172 12.5838 10.6172 15C10.6172 17.4162 12.576 19.375 14.9922 19.375ZM14.9922 16.868C13.9606 16.868 13.1242 16.0316 13.1242 15C13.1242 13.9684 13.9606 13.132 14.9922 13.132C16.0238 13.132 16.8602 13.9684 16.8602 15C16.8602 16.0316 16.0238 16.868 14.9922 16.868Z" fill="#0F0F0F"/>
<path id="Vector_2" d="M27.08 17.9806L27.2637 18.1502L27.08 17.9807C24.9454 20.2925 20.917 23.5 15.0003 23.5C9.08365 23.5 5.05523 20.2925 2.92062 17.9807L2.73694 18.1502L2.92062 17.9806C1.34417 16.2734 1.34417 13.7266 2.92062 12.0193C5.05523 9.7076 9.08365 6.5 15.0003 6.5C20.917 6.5 24.9454 9.7076 27.08 12.0193C28.6565 13.7266 28.6565 16.2734 27.08 17.9806ZM15.0003 8.5C9.86177 8.5 6.32686 11.2786 4.39 13.3762C3.52103 14.3172 3.52103 15.6828 4.38999 16.6238C6.32686 18.7215 9.86178 21.5 15.0003 21.5C20.1389 21.5 23.6738 18.7215 25.6106 16.6239C26.4796 15.6828 26.4796 14.3172 25.6106 13.3762C23.6738 11.2785 20.1389 8.5 15.0003 8.5Z" fill="#0F0F0F" stroke="black" stroke-width="0.5"/>
</g>
</svg>
