<svg width="30" height="30" viewBox="0 0 30 30" fill="none" xmlns="http://www.w3.org/2000/svg">
<g id="eye-closed-svgrepo-com (1) 1">
<path id="Vector" d="M3.36194 8.3807C3.15798 7.9048 2.60684 7.68434 2.13094 7.8883C1.65504 8.09226 1.43458 8.6434 1.63854 9.1193L3.36194 8.3807ZM11.3021 17.1721C11.5844 16.7382 11.4615 16.1575 11.0276 15.8751C10.5936 15.5927 10.0128 15.7156 9.73046 16.1496L11.3021 17.1721ZM7.96444 18.8637C7.68206 19.2976 7.80496 19.8784 8.23894 20.1607C8.67293 20.4431 9.25366 20.3202 9.53604 19.8862L7.96444 18.8637ZM28.362 9.1193C28.5659 8.6434 28.3455 8.09226 27.8695 7.8883C27.3936 7.68434 26.8425 7.9048 26.6385 8.3807L28.362 9.1193ZM24.9624 16.449C25.3285 16.8151 25.922 16.8151 26.2881 16.449C26.6542 16.0829 26.6542 15.4892 26.2881 15.1231L24.9624 16.449ZM14.0627 20.625C14.0627 21.1427 14.4825 21.5625 15.0002 21.5625C15.518 21.5625 15.9377 21.1427 15.9377 20.625H14.0627ZM20.4645 19.8862C20.7469 20.3202 21.3276 20.4431 21.7615 20.1607C22.1955 19.8784 22.3184 19.2976 22.036 18.8637L20.4645 19.8862ZM6.91316 14.574C7.27927 14.2079 7.27927 13.6142 6.91316 13.2481C6.54704 12.882 5.95344 12.882 5.58733 13.2481L6.91316 14.574ZM3.71233 15.1231C3.34622 15.4892 3.34622 16.0829 3.71233 16.449C4.07844 16.8151 4.67204 16.8151 5.03816 16.449L3.71233 15.1231ZM15.0002 16.5625C10.9704 16.5625 8.07691 14.5557 6.15599 12.4871C5.19581 11.453 4.49181 10.416 4.02848 9.63767C3.79736 9.24937 3.62758 8.9279 3.51699 8.70671C3.46173 8.5962 3.42136 8.51094 3.39558 8.45514C3.38271 8.42725 3.37348 8.40675 3.36788 8.39416C3.36508 8.38787 3.36293 8.38296 3.36194 8.3807C3.36192 8.38065 3.36198 8.3808 3.36194 8.3807C3.36207 8.38099 3.36194 8.3807 2.50024 8.75C1.63854 9.1193 1.63836 9.11887 1.63854 9.1193C1.63862 9.11949 1.63917 9.12075 1.63933 9.12112C1.63964 9.12186 1.64003 9.12275 1.64047 9.12375C1.64133 9.12577 1.64244 9.12832 1.64378 9.1314C1.64647 9.13754 1.65009 9.14577 1.65466 9.15604C1.66378 9.17656 1.67668 9.20519 1.69341 9.24139C1.72683 9.31377 1.77557 9.4165 1.83994 9.54524C1.96861 9.80257 2.16017 10.1647 2.41732 10.5967C2.93056 11.4589 3.71093 12.6095 4.78199 13.7629C6.92358 16.0692 10.2801 18.4375 15.0002 18.4375V16.5625ZM19.1409 15.7885C17.9279 16.266 16.5524 16.5625 15.0002 16.5625V18.4375C16.798 18.4375 18.406 18.0927 19.8276 17.5332L19.1409 15.7885ZM9.73046 16.1496L7.96444 18.8637L9.53604 19.8862L11.3021 17.1721L9.73046 16.1496ZM27.5002 8.75C26.6385 8.3807 26.6384 8.38087 26.6385 8.3807C26.6386 8.3805 26.6391 8.37936 26.6391 8.3795C26.639 8.37975 26.6386 8.38065 26.6379 8.3822C26.6365 8.38529 26.634 8.39094 26.6304 8.39905C26.6231 8.41529 26.6114 8.44136 26.595 8.47656C26.5621 8.54696 26.511 8.65369 26.441 8.79084C26.301 9.06534 26.0865 9.46039 25.7945 9.929C25.2089 10.8689 24.3206 12.09 23.1086 13.2275L24.3919 14.5946C25.7531 13.3169 26.7399 11.9573 27.3859 10.9206C27.7097 10.4008 27.9502 9.9585 28.1114 9.64269C28.1919 9.48469 28.2527 9.35804 28.2944 9.26884C28.3151 9.22424 28.3311 9.18897 28.3424 9.1638C28.348 9.15121 28.3525 9.14115 28.3557 9.1337C28.3574 9.12997 28.3586 9.12691 28.3597 9.1245C28.3602 9.1233 28.3606 9.12226 28.361 9.1214C28.3612 9.12096 28.3619 9.11965 28.362 9.1193C28.362 9.11939 28.3621 9.11912 28.362 9.1193C28.3621 9.11909 28.362 9.1193 27.5002 8.75ZM23.1086 13.2275C22.0349 14.2352 20.7176 15.1679 19.1409 15.7885L19.8276 17.5332C21.6696 16.8082 23.1835 15.7287 24.3919 14.5946L23.1086 13.2275ZM23.0874 14.574L24.9624 16.449L26.2881 15.1231L24.4131 13.2481L23.0874 14.574ZM14.0627 17.5V20.625H15.9377V17.5H14.0627ZM18.6985 17.1721L20.4645 19.8862L22.036 18.8637L20.27 16.1496L18.6985 17.1721ZM5.58733 13.2481L3.71233 15.1231L5.03816 16.449L6.91316 14.574L5.58733 13.2481Z" fill="#1C274C"/>
</g>
</svg>
