<svg width="28" height="21" viewBox="0 0 28 21" fill="none" xmlns="http://www.w3.org/2000/svg">
<path id="Vector" d="M14 0.0421143C11.2311 0.0421143 8.52431 0.647833 6.22202 1.78267C3.91973 2.91751 2.12532 4.53051 1.06569 6.41768C0.00606576 8.30485 -0.271181 10.3814 0.269012 12.3848C0.809205 14.3883 2.14258 16.2285 4.10051 17.6729C6.05845 19.1173 8.55301 20.1009 11.2687 20.4994C13.9845 20.8979 16.7994 20.6934 19.3576 19.9117C21.9157 19.13 24.1022 17.8062 25.6406 16.1078C27.1789 14.4094 28 12.4126 28 10.37C27.9958 7.63181 26.5195 5.00668 23.8949 3.0705C21.2703 1.13432 17.7117 0.0452119 14 0.0421143ZM14 19.8716C11.4526 19.8716 8.96236 19.3144 6.84426 18.2703C4.72616 17.2262 3.07529 15.7423 2.10044 14.0061C1.12558 12.2699 0.870514 10.3594 1.36749 8.5163C1.86447 6.67317 3.09117 4.98014 4.89247 3.65131C6.69377 2.32248 8.98877 1.41754 11.4872 1.05091C13.9857 0.684292 16.5755 0.872456 18.929 1.59161C21.2825 2.31077 23.2941 3.52862 24.7093 5.09115C26.1246 6.65369 26.88 8.49073 26.88 10.37C26.8761 12.8891 25.5179 15.3042 23.1033 17.0855C20.6886 18.8668 17.4148 19.8688 14 19.8716ZM15.12 10.37C15.12 10.5334 15.0543 10.6931 14.9313 10.829C14.8082 10.9649 14.6333 11.0708 14.4286 11.1333C14.224 11.1959 13.9988 11.2122 13.7815 11.1803C13.5642 11.1485 13.3647 11.0698 13.208 10.9542C13.0514 10.8387 12.9447 10.6914 12.9015 10.5312C12.8583 10.3709 12.8805 10.2048 12.9653 10.0538C13.05 9.90282 13.1936 9.77378 13.3778 9.683C13.5619 9.59221 13.7785 9.54375 14 9.54375C14.2969 9.544 14.5816 9.63113 14.7916 9.78603C15.0016 9.94092 15.1197 10.1509 15.12 10.37ZM15.12 15.3274C15.12 15.4908 15.0543 15.6505 14.9313 15.7864C14.8082 15.9223 14.6333 16.0282 14.4286 16.0907C14.224 16.1532 13.9988 16.1696 13.7815 16.1377C13.5642 16.1058 13.3647 16.0271 13.208 15.9116C13.0514 15.796 12.9447 15.6488 12.9015 15.4885C12.8583 15.3283 12.8805 15.1621 12.9653 15.0112C13.05 14.8602 13.1936 14.7312 13.3778 14.6404C13.5619 14.5496 13.7785 14.5011 14 14.5011C14.2969 14.5014 14.5816 14.5885 14.7916 14.7434C15.0016 14.8983 15.1197 15.1083 15.12 15.3274ZM15.12 5.4126C15.12 5.57602 15.0543 5.73576 14.9313 5.87163C14.8082 6.00751 14.6333 6.11341 14.4286 6.17594C14.224 6.23848 13.9988 6.25484 13.7815 6.22296C13.5642 6.19108 13.3647 6.11239 13.208 5.99684C13.0514 5.88129 12.9447 5.73407 12.9015 5.57379C12.8583 5.41352 12.8805 5.24739 12.9653 5.09642C13.05 4.94545 13.1936 4.81641 13.3778 4.72562C13.5619 4.63483 13.7785 4.58638 14 4.58638C14.2969 4.58663 14.5816 4.67376 14.7916 4.82865C15.0016 4.98354 15.1197 5.19355 15.12 5.4126Z" fill="black"/>
</svg>
