<svg width="30" height="28" viewBox="0 0 30 28" fill="none" xmlns="http://www.w3.org/2000/svg">
<path fill-rule="evenodd" clip-rule="evenodd" d="M27.0919 14.0014C27.0919 19.5635 21.8949 24.2955 15.1801 24.2955C8.46544 24.2955 3.26838 19.5635 3.26838 14.0014C3.26838 8.43926 8.46544 3.70726 15.1801 3.70726C21.8949 3.70726 27.0919 8.43926 27.0919 14.0014ZM29.2978 14.0014C29.2978 20.8235 22.9766 26.3543 15.1801 26.3543C7.38368 26.3543 1.0625 20.8235 1.0625 14.0014C1.0625 7.17926 7.38368 1.64844 15.1801 1.64844C22.9766 1.64844 29.2978 7.17926 29.2978 14.0014ZM16.2901 5.93244L16.2654 17.956L14.0596 17.9527L14.0843 5.92914L16.2901 5.93244ZM16.3184 21.1661C16.3184 20.8821 16.1975 20.6098 15.9824 20.4091C15.7673 20.2083 15.4755 20.0955 15.1713 20.0955C14.8671 20.0955 14.5753 20.2083 14.3602 20.4091C14.1451 20.6098 14.0243 20.8821 14.0243 21.1661C14.0243 21.45 14.1451 21.7223 14.3602 21.9231C14.5753 22.1239 14.8671 22.2367 15.1713 22.2367C15.4755 22.2367 15.7673 22.1239 15.9824 21.9231C16.1975 21.7223 16.3184 21.45 16.3184 21.1661Z" fill="#FF0000"/>
</svg>
