<svg width="75" height="75" viewBox="0 0 75 75" fill="none" xmlns="http://www.w3.org/2000/svg">
<rect width="75" height="75" rx="30" fill="#67E997"/>
<path d="M29.5654 19C32.6643 19 35.0699 19.7628 36.7812 21.2891C38.5388 22.7691 39.417 24.7121 39.417 27.1172C39.417 28.1809 39.2323 29.3372 38.8623 30.5859L34.5684 44.7207C28.5519 45.2654 22.714 45.8545 17.0195 46.5049C17.0679 45.5116 17.2724 44.4143 17.6328 43.2129L22.0039 28.2969C22.0964 27.9269 22.1426 27.6489 22.1426 27.4639C22.1425 27.0014 22.0261 26.6079 21.7949 26.2842C21.5637 25.9606 21.2402 25.6139 20.8242 25.2441C20.1305 24.6429 19.7833 24.1109 19.7832 23.6484C19.737 23.001 20.1305 22.3074 20.9629 21.5674C21.7954 20.8274 22.9516 20.2252 24.4316 19.7627C25.9579 19.254 27.6692 19 29.5654 19ZM49.8936 19C52.3447 19.0001 54.3793 19.8792 55.998 21.6367C57.6168 23.3943 58.4268 25.799 58.4268 28.8516C58.4268 32.968 56.9926 37.1771 54.125 41.4785C53.7262 42.0768 53.3102 42.6589 52.8818 43.2285C49.6846 43.4645 46.5406 43.7067 43.4453 43.959C43.6749 43.6971 43.9065 43.4269 44.1348 43.1436C45.4761 41.4322 46.563 39.42 47.3955 37.1074C45.5455 35.4887 44.2277 33.8928 43.4414 32.3203C42.7014 30.7478 42.3311 29.1289 42.3311 27.4639C42.3311 25.1053 42.9786 23.1167 44.2734 21.498C45.5685 19.833 47.4422 19 49.8936 19Z" fill="black"/>
<path d="M52.876 43.2266C50.224 46.7538 47.0085 49.7344 43.2246 52.1641C38.8308 54.9391 34.5522 56.3262 30.3896 56.3262C26.4121 56.3261 23.1743 55.5172 20.6768 53.8984C18.2256 52.2797 17.0001 49.9671 17 46.9609C17 46.8109 17.0041 46.658 17.0117 46.5029C22.7065 45.8525 28.5447 45.2635 34.5615 44.7188L34.3447 45.4346C34.2061 45.8506 34.1368 46.1972 34.1367 46.4746C34.1367 47.0759 34.3445 47.5385 34.7607 47.8623C35.177 48.1861 35.7551 48.3477 36.4951 48.3477C37.5126 48.3476 38.692 47.9089 40.0332 47.0303C41.1855 46.2621 42.319 45.2356 43.4395 43.957C46.5347 43.7047 49.6788 43.4626 52.876 43.2266Z" fill="url(#paint0_linear_4397_2449)"/>
<defs>
<linearGradient id="paint0_linear_4397_2449" x1="34.9082" y1="60.8597" x2="32.9544" y2="35.0285" gradientUnits="userSpaceOnUse">
<stop/>
<stop offset="1" stop-opacity="0"/>
</linearGradient>
</defs>
</svg>
