<svg width="99" height="82" viewBox="0 0 99 82" fill="none" xmlns="http://www.w3.org/2000/svg">
<path d="M71.2216 34.902C75.6194 34.9381 79.8247 36.4011 82.9346 38.9769C86.0445 41.5527 87.8109 45.0359 87.8546 48.6785C87.9105 52.2745 86.1054 55.7111 83.1694 58.2637C80.0021 61.0173 75.726 62.4072 71.2216 62.4552C64.6279 62.5253 64.62 71.001 71.2216 70.9308C85.9802 70.7735 97.8973 60.9026 98.0873 48.6784C98.2772 36.4533 85.6941 26.5804 71.2216 26.4264C64.62 26.3561 64.6279 34.8318 71.2216 34.902ZM27.5787 62.4046C23.1809 62.3685 18.9755 60.9054 15.8656 58.3296C12.7558 55.7537 10.9893 52.2705 10.9457 48.6279C10.8899 45.0316 12.6947 41.5952 15.6309 39.0421C18.7981 36.2885 23.0741 34.8991 27.5786 34.8511C34.1722 34.7808 34.1803 26.305 27.5786 26.3754C12.8199 26.5325 0.90274 36.4032 0.713055 48.6279C0.523369 60.8528 13.106 70.7262 27.5787 70.8801C34.1804 70.9503 34.1723 62.4747 27.5787 62.4046Z" fill="#9A989C"/>
<path d="M32.8387 30.7655C32.8821 27.1229 34.6484 23.6397 37.7582 21.0638C40.868 18.488 45.0734 17.025 49.4712 16.989C53.8128 16.9428 57.9618 18.4378 61.0435 20.8698C64.3681 23.493 66.046 27.0346 66.104 30.7655C66.1888 36.2267 76.4217 36.2336 76.3369 30.7655C76.147 18.5413 64.2296 8.67059 49.4712 8.51347C34.7116 8.35636 22.792 18.778 22.606 30.7655C22.5209 36.2336 32.7539 36.2267 32.8387 30.7655Z" fill="#9A989C"/>
<path d="M52.6954 37.8841C54.2946 39.2088 54.2946 41.356 52.6954 42.6805L40.8144 52.5217C39.2151 53.846 36.6227 53.846 35.0237 52.5217C33.4244 51.1967 33.4244 49.0493 35.0237 47.7251L46.9048 37.8841C48.5036 36.5595 51.0964 36.5595 52.6954 37.8841Z" fill="#67E997"/>
<path d="M46.9069 37.8839C48.5056 36.5595 51.0983 36.5595 52.6972 37.8839L64.5787 47.7252C66.1776 49.0491 66.1776 51.1969 64.5787 52.5216C62.9796 53.8459 60.3866 53.8459 58.7878 52.5216L46.9069 42.6807C45.3071 41.356 45.3071 39.2086 46.9069 37.8839Z" fill="#67E997"/>
<path d="M49.6994 50.7773C52.017 50.7773 53.8955 52.3335 53.8955 54.2527V68.5134C53.8955 70.4328 52.0168 71.9887 49.6994 71.9887C47.3826 71.9887 45.5039 70.4326 45.5039 68.5134V54.2527C45.504 52.3333 47.3827 50.7773 49.6994 50.7773Z" fill="#67E997"/>
</svg>
